<svg id="iconMoney" viewBox="0 0 24 16.92" xmlns="http://www.w3.org/2000/svg"><path d="M12,2.5a4,4,0,1,0,4,4A4,4,0,0,0,12,2.5Zm0,7a3,3,0,1,1,3-3A3,3,0,0,1,12,9.5Z"/><path d="M23.5,0H.5A.5.5,0,0,0,0,.5V16.42a.5.5,0,0,0,.5.5h23a.5.5,0,0,0,.5-.5V.5A.5.5,0,0,0,23.5,0ZM23,12H20.1A3.45,3.45,0,0,1,23,9.1Zm-3.89,0H4.89A4.41,4.41,0,0,0,1,8.11V4.89A4.41,4.41,0,0,0,4.89,1H19.11A4.41,4.41,0,0,0,23,4.89V8.11A4.41,4.41,0,0,0,19.11,12ZM3.9,12H1V9.1A3.45,3.45,0,0,1,3.9,12ZM1,13H23v1H1ZM23,1V3.9A3.45,3.45,0,0,1,20.1,1ZM1,1H3.9A3.45,3.45,0,0,1,1,3.9ZM23,15.92H1V15H23Z"/></svg>